PathFileType	4	(X/Y/Z)	/Users/itak/Documents/Research/Walk-IL/dataset/trc/00087_00006.trc
DataRate	CameraRate	NumFrames	NumMarkers	Units	OrigDataRate	OrigDataStartFrame	OrigNumFrames
100.000000	100.000000	4	53	mm	100.000000	250	500
Frame#	Time	LPSI			L3			STRN			T10			C7			CLAV			RBAK			LBAK			LSHO			LUPA			LAEL			LAOL			LWTS			LWPS			LFRA			LIFD			LHPS			LHTS			RSHO			RUPA			RAEL			RAOL			RWTS			RWPS			RFRA			RIFD			RHTS			RHPS			RBHD			LFHD			RFHD			LBHD			LHIP			RHIP			RASI			LASI			LKNE			LTHI			LANK			LTIP			LTOE			LMT1			LMT5			LHEE			RKNE			RTHI			RANK			RTIP			RTOE			RMT1			RMT5			RHEE			RPSI			
		X1	Y1	Z1	X2	Y2	Z2	X3	Y3	Z3	X4	Y4	Z4	X5	Y5	Z5	X6	Y6	Z6	X7	Y7	Z7	X8	Y8	Z8	X9	Y9	Z9	X10	Y10	Z10	X11	Y11	Z11	X12	Y12	Z12	X13	Y13	Z13	X14	Y14	Z14	X15	Y15	Z15	X16	Y16	Z16	X17	Y17	Z17	X18	Y18	Z18	X19	Y19	Z19	X20	Y20	Z20	X21	Y21	Z21	X22	Y22	Z22	X23	Y23	Z23	X24	Y24	Z24	X25	Y25	Z25	X26	Y26	Z26	X27	Y27	Z27	X28	Y28	Z28	X29	Y29	Z29	X30	Y30	Z30	X31	Y31	Z31	X32	Y32	Z32	X33	Y33	Z33	X34	Y34	Z34	X35	Y35	Z35	X36	Y36	Z36	X37	Y37	Z37	X38	Y38	Z38	X39	Y39	Z39	X40	Y40	Z40	X41	Y41	Z41	X42	Y42	Z42	X43	Y43	Z43	X44	Y44	Z44	X45	Y45	Z45	X46	Y46	Z46	X47	Y47	Z47	X48	Y48	Z48	X49	Y49	Z49	X50	Y50	Z50	X51	Y51	Z51	X52	Y52	Z52	X53	Y53	Z53	

251	2.5	-712.943115234375	1003.580505371094	225.0443420410156	-691.5833129882812	1072.59228515625	293.3690795898438	-435.4319763183594	1264.280395507812	259.9474487304688	-704.775634765625	1201.313354492188	280.0690002441406	-641.7747802734375	1468.015991210938	281.0667114257812	-463.8170776367188	1379.315551757812	267.7604370117188	-699.1920166015625	1326.883422851562	353.127197265625	-672.6900634765625	1436.119140625	178.9547729492188	-572.9166259765625	1444.2509765625	102.3047637939453	-581.8895263671875	1319.563232421875	20.38096046447754	-528.7939453125	1108.628295898438	-4.48820161819458	-592.46728515625	1082.018920898438	75.71463775634766	-378.6895141601562	912.2318115234375	85.06048583984375	-425.6597900390625	877.4246215820312	24.52683639526367	-478.7394714355469	1008.037902832031	-2.622684717178345	-310.532958984375	745.1783447265625	127.4080810546875	-370.1593017578125	812.84228515625	39.83646774291992	-330.5411987304688	842.4578247070312	90.89636993408203	-567.3595581054688	1423.0546875	449.9014282226562	-579.7552490234375	1354.003295898438	509.1938781738281	-641.3519897460938	1101.28759765625	543.6963500976562	-620.8816528320312	1072.489135742188	449.7252197265625	-532.4517211914062	831.5731201171875	521.5894775390625	-605.5652465820312	827.916015625	571.081298828125	-639.0717163085938	1020.590454101562	555.1055908203125	-559.474365234375	645.1859741210938	508.9075622558594	-523.7445678710938	727.0751953125	525.738525390625	-579.598876953125	735.8604736328125	578.8349609375	-537.9891357421875	1633.186279296875	386.43359375	-473.294677734375	1681.02685546875	178.8066101074219	-405.768310546875	1675.881958007812	285.3568725585938	-618.8374633789062	1647.22900390625	275.82373046875	-639.2708129882812	940.3369750976562	108.1287841796875	-577.11376953125	943.65673828125	451.0252380371094	-462.2993469238281	966.34423828125	397.755126953125	-514.85009765625	949.823486328125	136.3898010253906	-591.4873657226562	475.7442932128906	210.6354675292969	-614.217041015625	615.647216796875	157.5644989013672	-785.9765014648438	51.70565795898438	250.8729248046875	-694.787109375	247.4379730224609	222.7154235839844	-581.7160034179688	43.22911834716797	280.0752868652344	-637.728759765625	41.73715591430664	325.9275512695312	-680.6168212890625	41.73463821411133	222.6358642578125	-845.626708984375	58.38478469848633	321.5903930664062	-361.1309204101562	533.8543701171875	384.8506164550781	-443.9238891601562	789.702880859375	433.3970031738281	-282.3286743164062	46.46156311035156	391.0286254882812	-336.08349609375	414.0048828125	391.1239013671875	-128.7189788818359	123.0995178222656	267.8900451660156	-193.5113983154297	100.4734344482422	257.0613708496094	-174.1557312011719	88.77124786376953	353.7562866210938	-346.3928833007812	34.49349594116211	359.5286865234375	-664.6538696289062	1010.438781738281	390.1432800292969	
252	2.51	-704.2536010742188	1002.34716796875	224.73974609375	-682.6551513671875	1071.308959960938	292.8751220703125	-426.8352355957031	1262.994750976562	258.1571960449219	-696.10888671875	1199.983032226562	279.5483703613281	-633.1593627929688	1466.735717773438	280.3537902832031	-455.1882629394531	1378.029663085938	266.1741943359375	-690.2153930664062	1325.468872070312	352.5718994140625	-664.4823608398438	1434.854248046875	178.3433837890625	-565.0289306640625	1442.997436523438	101.2255859375	-574.484130859375	1318.262939453125	19.35364151000977	-521.8802490234375	1107.171142578125	-5.64769458770752	-585.2276000976562	1080.777954101562	74.85443878173828	-372.5608215332031	909.7880859375	83.01598358154297	-419.8944091796875	875.3721923828125	22.5750617980957	-472.4254455566406	1006.3330078125	-4.135242938995361	-305.2131958007812	742.2588500976562	124.7700805664062	-364.7349548339844	810.4110717773438	37.55914306640625	-324.8178100585938	839.7481689453125	88.49578857421875	-558.0228271484375	1421.526245117188	448.8223266601562	-570.0498046875	1352.377685546875	508.1235961914062	-631.1817016601562	1099.505249023438	542.67919921875	-611.2173461914062	1070.814331054688	448.5709533691406	-522.51513671875	829.8031005859375	519.8272094726562	-595.3298950195312	826.2222290039062	569.8464965820312	-628.7615356445312	1018.879089355469	554.0628662109375	-549.8494262695312	643.4520874023438	507.3792419433594	-513.9215698242188	725.1358642578125	523.8663330078125	-569.3711547851562	734.1519165039062	577.4766235351562	-528.8323364257812	1631.838989257812	385.3950805664062	-465.1084289550781	1679.786865234375	177.5291137695312	-397.1469421386719	1674.667724609375	283.7480163574219	-610.069580078125	1645.783203125	275.1895751953125	-631.3104248046875	939.1654052734375	107.294548034668	-566.599853515625	942.5840454101562	449.8503723144531	-452.7302551269531	965.2150268554688	395.9863586425781	-506.8978271484375	948.5140991210938	134.867431640625	-586.6649169921875	474.6078186035156	209.7813262939453	-608.3709716796875	614.6754150390625	156.6604156494141	-785.7698974609375	52.3963737487793	250.7982788085938	-692.3670654296875	247.2666168212891	222.1152191162109	-581.7610473632812	43.23061752319336	279.9400024414062	-637.6470336914062	41.82043838500977	325.7840270996094	-680.5255126953125	41.71291732788086	222.5068969726562	-845.4774169921875	60.14620971679688	321.3959350585938	-352.7798767089844	532.4923706054688	382.5732116699219	-434.2359924316406	788.4444580078125	431.6036682128906	-266.9095458984375	46.39493560791016	385.06298828125	-326.3890686035156	413.1828002929688	388.049072265625	-115.6138458251953	125.7630157470703	260.8007507324219	-180.3086853027344	102.4188003540039	250.4955749511719	-159.7975921630859	90.35337066650391	346.928466796875	-331.2988586425781	33.72531890869141	354.1721496582031	-655.22705078125	1009.275024414062	389.5877380371094	
253	2.52	-695.4020385742188	1001.203796386719	224.4364776611328	-673.5740966796875	1070.052978515625	292.3888244628906	-418.1296997070312	1261.76806640625	256.4158630371094	-687.3241577148438	1198.668090820312	279.0476989746094	-624.4734497070312	1465.488159179688	279.6707153320312	-446.4845275878906	1376.789306640625	264.6271057128906	-681.15771484375	1324.070434570312	352.032470703125	-656.1939697265625	1433.608276367188	177.76611328125	-557.0722045898438	1441.770629882812	100.1706008911133	-567.0616455078125	1316.98583984375	18.3597412109375	-515.0592651367188	1105.712158203125	-6.775325298309326	-578.0603637695312	1079.575561523438	74.06060028076172	-366.7053833007812	907.1585693359375	80.88159942626953	-414.4466857910156	873.2311401367188	20.55035972595215	-466.2898864746094	1004.587341308594	-5.651186466217041	-300.3289794921875	739.0789184570312	121.9583129882812	-359.6873168945312	807.8221435546875	35.15517425537109	-319.3808898925781	836.8018798828125	85.98765563964844	-548.623291015625	1420.040283203125	447.7749328613281	-560.2857055664062	1350.781494140625	507.0731811523438	-620.8473510742188	1097.72509765625	541.6748657226562	-601.4191284179688	1069.15576171875	447.4070434570312	-512.3580932617188	828.0691528320312	518.0772094726562	-584.8582153320312	824.5511474609375	568.6168212890625	-618.2457885742188	1017.179016113281	553.0443725585938	-539.8479614257812	641.7744140625	505.8924560546875	-503.9156494140625	723.2493286132812	521.9989013671875	-558.8788452148438	732.4769287109375	576.128173828125	-519.6091918945312	1630.5498046875	384.3631286621094	-456.8800659179688	1678.583740234375	176.2579193115234	-388.4861145019531	1673.519287109375	282.1296997070312	-601.2611083984375	1644.378173828125	274.5762023925781	-623.1084594726562	938.0621948242188	106.5195770263672	-556.116455078125	941.5279541015625	448.7023010253906	-443.1013488769531	964.0736083984375	394.2787780761719	-498.8106994628906	947.2455444335938	133.385009765625	-581.7117309570312	473.555908203125	208.9601593017578	-602.3999633789062	613.7724609375	155.7769927978516	-785.5367431640625	53.27305603027344	250.7140808105469	-689.841064453125	247.2123260498047	221.5547943115234	-581.797607421875	43.2357177734375	279.8023681640625	-637.5415649414062	41.90989303588867	325.6221923828125	-680.4024658203125	41.73484802246094	222.3809204101562	-845.2860107421875	62.12446594238281	321.2076110839844	-344.2221374511719	531.240966796875	380.1348571777344	-424.4277954101562	787.270751953125	429.7347106933594	-254.1267852783203	46.02588272094727	379.7023620605469	-316.9762268066406	412.2087097167969	384.9416809082031	-104.2659149169922	127.0790786743164	254.7555694580078	-168.8794097900391	103.280891418457	244.781005859375	-147.6905212402344	91.00513458251953	341.0217895507812	-318.6825256347656	32.95246887207031	349.1709899902344	-645.6765747070312	1008.1689453125	389.0264587402344	
254	2.53	-686.3941040039062	1000.167114257812	224.1209259033203	-664.3355102539062	1068.834106445312	291.8967590332031	-409.3096923828125	1260.624389648438	254.7290344238281	-678.4115600585938	1197.380981445312	278.5651245117188	-615.7220458984375	1464.286743164062	279.0192565917969	-437.7054138183594	1375.615356445312	263.125	-672.0158081054688	1322.700805664062	351.5111389160156	-647.823974609375	1432.396240234375	177.2272338867188	-549.0430908203125	1440.587036132812	99.14701080322266	-559.6172485351562	1315.750244140625	17.40548896789551	-508.3328857421875	1104.275512695312	-7.86256217956543	-570.9765014648438	1078.4326171875	73.33615875244141	-361.1258850097656	904.3720092773438	78.65167999267578	-409.3331909179688	871.0256958007812	18.44957160949707	-460.3308715820312	1002.824462890625	-7.166280746459961	-295.8888549804688	735.6630859375	118.9662628173828	-355.0265197753906	805.1036376953125	32.61991500854492	-314.2706604003906	833.6331787109375	83.35825347900391	-539.1588134765625	1418.619262695312	446.7662963867188	-550.4632568359375	1349.237182617188	506.0480041503906	-610.353759765625	1095.970336914062	540.67529296875	-591.4755859375	1067.537475585938	446.2278137207031	-501.9817504882812	826.39453125	516.339599609375	-574.1571655273438	822.9246826171875	567.3841552734375	-607.5375366210938	1015.5146484375	552.0338745117188	-529.4907836914062	640.1671142578125	504.4434509277344	-493.7398376464844	721.4336547851562	520.1295776367188	-548.1271362304688	730.8599243164062	574.7833251953125	-510.322509765625	1629.346069335938	383.3345642089844	-448.6193542480469	1677.44140625	174.9912872314453	-379.78564453125	1672.455444335938	280.5002136230469	-592.4310913085938	1643.048461914062	273.9866943359375	-614.6538696289062	937.0385131835938	105.8022155761719	-545.7028198242188	940.4984741210938	447.5535278320312	-433.3934020996094	962.9392700195312	392.6151733398438	-490.5714111328125	946.0391845703125	131.9309234619141	-576.54443359375	472.5879516601562	208.1712799072266	-596.2474365234375	612.9376831054688	154.91650390625	-785.2667236328125	54.35443115234375	250.6135101318359	-687.1785278320312	247.2793121337891	221.0269012451172	-581.8192749023438	43.24145889282227	279.6636047363281	-637.4033203125	42.00967025756836	325.4403991699219	-680.2467651367188	41.80363464355469	222.2503509521484	-845.0386352539062	64.34130859375	321.0203857421875	-335.4699401855469	530.0945434570312	377.5228576660156	-414.5106506347656	786.19287109375	427.77734375	-243.9413909912109	45.30731201171875	375.02392578125	-307.8336181640625	411.0630187988281	381.7875366210938	-94.63070678710938	126.9315032958984	249.7167053222656	-159.1972808837891	102.9583511352539	239.8966827392578	-137.7809143066406	90.63677978515625	336.0318603515625	-308.531494140625	32.14878463745117	344.622314453125	-635.993896484375	1007.131713867188	388.4455261230469	
